<svg width="330" height="60" viewBox="0 0 330 60" fill="none" xmlns="http://www.w3.org/2000/svg">
<path opacity="0.4" d="M0.711532 59.5L21.962 0.5H329.288L308.038 59.5H0.711532Z" stroke="white"/>
<path d="M168.334 34.2139L170.056 32.491C170.288 32.2618 170.582 32.1049 170.901 32.0394C171.221 31.9739 171.552 32.0025 171.855 32.1218L173.954 32.9602C174.261 33.0847 174.524 33.2972 174.71 33.5709C174.896 33.8447 174.997 34.1674 175 34.4985V38.3442C174.998 38.5694 174.951 38.7919 174.861 38.9983C174.771 39.2047 174.64 39.3908 174.476 39.5453C174.313 39.6998 174.119 39.8195 173.908 39.8973C173.697 39.9751 173.472 40.0093 173.247 39.9979C158.539 39.0826 155.571 26.6224 155.01 21.8537C154.984 21.6195 155.008 21.3825 155.08 21.1581C155.152 20.9338 155.271 20.7273 155.429 20.5522C155.586 20.3771 155.779 20.2374 155.994 20.1422C156.21 20.047 156.443 19.9986 156.679 20H160.392C160.723 20.001 161.047 20.1011 161.321 20.2876C161.595 20.474 161.807 20.7381 161.93 21.0461L162.768 23.1458C162.891 23.4482 162.922 23.7801 162.858 24.1002C162.794 24.4203 162.637 24.7144 162.406 24.9456L160.684 26.6685C160.684 26.6685 161.676 33.3832 168.334 34.2139Z" fill="white"/>
</svg>
