<?xml version="1.0" encoding="utf-8"?><svg viewBox="0 0 502.66 502.66" xmlns="http://www.w3.org/2000/svg" xmlns:xlink="http://www.w3.org/1999/xlink"><style>:root>svg{display:none}:root>svg:target{display:block}</style><svg viewBox="0 0 31 19" id="burger" xmlns="http://www.w3.org/2000/svg"><path d="M.083 1.744c0-.71.688-1.286 1.534-1.286h12.349c.407 0 .797.136 1.085.377.287.24.449.568.449.909 0 .34-.162.667-.45.908a1.696 1.696 0 0 1-1.084.377H1.617C.77 3.029.083 2.454.083 1.744Zm0 7.756c0-.71.688-1.285 1.534-1.285h27.766c.406 0 .797.135 1.084.376.288.241.45.568.45.91 0 .34-.162.667-.45.908a1.696 1.696 0 0 1-1.084.376H1.617C.77 10.785.083 10.21.083 9.5Zm1.534 6.471c-.407 0-.797.136-1.085.377a1.19 1.19 0 0 0-.449.909c0 .34.162.667.45.908.287.241.677.377 1.084.377h18.516c.201 0 .4-.034.587-.098a1.59 1.59 0 0 0 .497-.279c.143-.12.256-.26.333-.417a1.106 1.106 0 0 0 0-.983 1.295 1.295 0 0 0-.333-.417 1.582 1.582 0 0 0-.497-.279 1.795 1.795 0 0 0-.587-.098H1.617Z"/></svg><svg viewBox="0 0 33 32" id="carbon_phone-filled" xmlns="http://www.w3.org/2000/svg"><path d="m19.532 20.214 1.722-1.723a1.683 1.683 0 0 1 1.8-.37l2.098.84a1.677 1.677 0 0 1 1.046 1.538v3.845a1.67 1.67 0 0 1-1.753 1.654C9.737 25.083 6.769 12.622 6.208 7.854A1.67 1.67 0 0 1 7.876 6h3.714a1.66 1.66 0 0 1 1.537 1.046l.838 2.1a1.662 1.662 0 0 1-.36 1.8l-1.723 1.723s.992 6.714 7.65 7.545Z"/></svg><svg viewBox="0 0 502.664 502.664" xml:space="preserve" id="icon" xmlns="http://www.w3.org/2000/svg"><path d="M153.821 358.226 0 274.337v-46.463l153.821-83.414v54.574L46.636 250.523l107.185 53.431v54.272zm26.273 29.358L282.103 115.08h32.227L212.084 387.584h-31.99zm168.749-29.358v-54.272l107.164-52.999-107.164-52.59v-53.927l153.821 83.522v46.183l-153.821 84.083z"/></svg><svg viewBox="0 0 58 60" id="logo-img" xmlns="http://www.w3.org/2000/svg"><path d="M18.577 11.77s-7.635.056-8.337.138c-1.35.155-4.345.816-5.579 3.288-1.68 3.368 1.483 8.14 1.483 8.14l3.976 6.358M14.17 48.126a2.115 2.115 0 1 0-2.242-3.587l-1.196.747a2.115 2.115 0 0 0 2.242 3.587l1.195-.747Zm8.865-16.625a2.115 2.115 0 1 0-2.241-3.586L9.236 35.139a2.115 2.115 0 0 0 2.241 3.586l11.558-7.224Zm4.15 8.492a2.115 2.115 0 0 0-2.242-3.587l-6.604 4.128a2.115 2.115 0 0 0 2.241 3.586l6.605-4.127Zm24.347-10.78a1.645 1.645 0 1 0-1.744-2.79 1.645 1.645 0 0 0 1.744 2.79Z"/><path fill-rule="evenodd" clip-rule="evenodd" d="M41.967 35.374a10187.22 10187.22 0 0 0-3.722 7.543 2000.007 2000.007 0 0 1-3.4 6.88c-1.118 2.223-2.207 2.974-3.521 2.844-1.018-.092-2.362-1.372-2.45-3.92-.09-2.549-.396-9.53-5.759-6.178-.092-.148-.137-.376-.186-.622-.057-.29-.12-.606-.27-.847-1.25-2.002-6.398-10.32-6.024-10.554.373-.233 2.098-1.834 1.016-3.673-.932-1.583-2.457-2.488-4.107-3.467a74.869 74.869 0 0 1-.808-.484c-2.504-1.606-3.084-2.85-2.499-4.513.743-1.568 3.192-1.563 4.195-1.53.982.032 8.48.07 15.99.083l-4.893 13.42a3.555 3.555 0 0 0 .076 2.41 3.394 3.394 0 0 0 2.194 1.222l14.165 1.383.003.003Zm-5.875-18.435a2.119 2.119 0 0 0-1.555 1.293c-1.723 3.93-2.204 5.181-2.889 6.962-.154.402-.319.83-.51 1.322l-.099.277c-.294.823-.838 2.341-.46 2.944.323.518 1.05.592 2.432.733a559.067 559.067 0 0 0 9.758.933 2.432 2.432 0 0 0 1.54-.756l.365-.728 3.581-7.129.038-.074c.73-1.45 2.969-5.893-3.717-5.813-1.913.024-5 .034-8.484.036Z"/><path d="M54.359 22.087s2.462-3.857.497-7.068c-1.965-3.21-7.564-3.259-7.564-3.259l-20.818.112M21.782 48.676s4.108 6.613 4.31 6.898c.564.794 2.934 3.76 6.108 3.456 3.747-.359 6.12-5.569 6.12-5.569l9.858-19.737"/></svg><svg viewBox="0 0 92 26" id="logo-magwai" xmlns="http://www.w3.org/2000/svg"><path d="M3.573 19.586H.833V7.616h2.576v1.958c.547-.834 1.166-1.44 1.856-1.819.698-.387 1.52-.58 2.462-.58.934 0 1.709.197 2.323.593.614.387 1.082.98 1.401 1.78.632-.825 1.301-1.426 2.008-1.805.716-.379 1.528-.568 2.437-.568.791 0 1.481.147 2.07.442.59.286 1.049.707 1.377 1.262.151.261.26.573.328.934.076.362.114.88.114 1.553v8.22h-2.74v-6.149c0-1.608-.173-2.664-.518-3.169-.337-.513-.943-.77-1.818-.77-1.077 0-1.848.345-2.31 1.035-.455.682-.682 1.881-.682 3.599v5.454H8.952v-6.149c0-1.481-.181-2.508-.543-3.08-.354-.573-.968-.86-1.844-.86-.538 0-1.03.123-1.477.367-.446.244-.8.58-1.06 1.01a2.87 2.87 0 0 0-.354 1.023c-.067.404-.101 1.149-.101 2.235v5.454Zm31.148 0h-2.74v-1.553c-.488.69-1.06 1.204-1.717 1.54-.648.337-1.393.505-2.235.505-1.691 0-3.026-.576-4.002-1.73-.968-1.16-1.452-2.748-1.452-4.76 0-1.91.497-3.45 1.49-4.62.993-1.179 2.29-1.768 3.889-1.768.976 0 1.81.206 2.5.619a3.546 3.546 0 0 1 1.527 1.755V7.617h2.74v11.969Zm-2.664-6.023c0-1.237-.29-2.2-.871-2.891-.572-.69-1.376-1.035-2.412-1.035-1.035 0-1.851.357-2.449 1.073-.59.707-.884 1.692-.884 2.954 0 1.271.286 2.252.859 2.942.572.69 1.38 1.036 2.424 1.036.985 0 1.784-.375 2.399-1.124.623-.75.934-1.734.934-2.955Zm15.05 0c0-1.237-.29-2.2-.87-2.891-.573-.69-1.377-1.035-2.412-1.035-1.036 0-1.852.357-2.45 1.073-.589.707-.884 1.692-.884 2.954 0 1.271.287 2.252.859 2.942.572.69 1.38 1.036 2.424 1.036.985 0 1.785-.375 2.4-1.124.622-.75.933-1.734.933-2.955Zm2.665 5.278c0 2.34-.468 3.986-1.402 4.937-.934.96-2.508 1.44-4.722 1.44-1.65 0-2.967-.35-3.952-1.049-.985-.69-1.486-1.612-1.502-2.765l2.941-.012c.042.513.282.904.72 1.174.438.27 1.052.404 1.843.404 1.17 0 2.012-.257 2.526-.77.513-.514.774-1.372.782-2.576l.026-1.591c-.488.69-1.06 1.204-1.717 1.54-.649.337-1.393.505-2.235.505-1.692 0-3.026-.576-4.003-1.73-.968-1.16-1.452-2.748-1.452-4.76 0-1.91.497-3.45 1.49-4.62.993-1.179 2.29-1.768 3.889-1.768.976 0 1.81.206 2.5.619a3.546 3.546 0 0 1 1.528 1.755V7.617h2.74V18.84Zm15.239 1.465-2.765-6.225c-.21-.48-.383-.905-.518-1.275-.134-.379-.256-.75-.366-1.111-.185.547-.35 1.018-.492 1.414-.143.387-.257.678-.341.871l-2.84 6.326-6.2-12.69h2.916l2.69 5.77c.11.245.214.581.315 1.01.11.422.202.889.278 1.402.008-.303.059-.618.152-.947.092-.328.248-.732.467-1.212l2.929-6.464h.227l2.98 6.464c.185.404.32.779.404 1.124.093.345.147.69.164 1.035a11.4 11.4 0 0 1 .29-1.288 7.9 7.9 0 0 1 .405-1.098l2.638-5.795h2.892L65.01 20.306Zm19.204-.72h-2.74v-1.553c-.488.69-1.06 1.204-1.717 1.54-.648.337-1.393.505-2.234.505-1.692 0-3.026-.576-4.003-1.73-.968-1.16-1.452-2.748-1.452-4.76 0-1.91.497-3.45 1.49-4.62.993-1.179 2.29-1.768 3.889-1.768.976 0 1.81.206 2.5.619a3.547 3.547 0 0 1 1.528 1.755V7.617h2.74v11.969Zm-2.664-6.023c0-1.237-.29-2.2-.87-2.891-.573-.69-1.377-1.035-2.412-1.035-1.036 0-1.852.357-2.45 1.073-.59.707-.884 1.692-.884 2.954 0 1.271.286 2.252.859 2.942.572.69 1.38 1.036 2.424 1.036.985 0 1.784-.375 2.399-1.124.623-.75.934-1.734.934-2.955ZM87.763 2.44c0-.463.169-.863.505-1.2a1.695 1.695 0 0 1 1.225-.505c.488 0 .892.164 1.212.493.328.32.493.724.493 1.212s-.165.9-.493 1.237a1.647 1.647 0 0 1-1.212.493c-.471 0-.88-.169-1.225-.505a1.695 1.695 0 0 1-.505-1.225Zm.366 17.146V7.616h2.74v11.97h-2.74Z"/></svg><svg viewBox="0 0 93 60" id="phone" xmlns="http://www.w3.org/2000/svg"><g opacity=".4"><path d="M.875 59.5 19.067.5H92.02l-18.191 59H.875Z"/><path d="m49.532 34.214 1.722-1.723a1.683 1.683 0 0 1 1.8-.37l2.098.84a1.677 1.677 0 0 1 1.046 1.538v3.845a1.67 1.67 0 0 1-1.753 1.654c-14.708-.915-17.676-13.376-18.237-18.144A1.67 1.67 0 0 1 37.876 20h3.714a1.66 1.66 0 0 1 1.537 1.046l.838 2.1a1.662 1.662 0 0 1-.36 1.8l-1.723 1.723s.992 6.714 7.65 7.545Z"/></g></svg><svg viewBox="0 0 330 60" id="phone-adaptive" xmlns="http://www.w3.org/2000/svg"><path opacity=".4" d="m.712 59.5 21.25-59h307.326l-21.25 59H.712Z"/><path d="m168.334 34.214 1.722-1.723a1.685 1.685 0 0 1 1.799-.37l2.099.84A1.675 1.675 0 0 1 175 34.498v3.845a1.673 1.673 0 0 1-1.092 1.553 1.667 1.667 0 0 1-.661.1c-14.708-.914-17.676-13.375-18.237-18.143a1.673 1.673 0 0 1 .984-1.712c.216-.095.449-.143.685-.142h3.713a1.66 1.66 0 0 1 1.538 1.046l.838 2.1a1.666 1.666 0 0 1-.362 1.8l-1.722 1.723s.992 6.714 7.65 7.545Z"/></svg></svg>