<svg width="92" height="26" viewBox="0 0 92 26" fill="none" xmlns="http://www.w3.org/2000/svg">
<path d="M3.57286 19.586H0.833008V7.61654H3.40872V9.57358C3.95585 8.74026 4.57452 8.13421 5.26475 7.75543C5.96339 7.36823 6.78408 7.17463 7.72682 7.17463C8.66115 7.17463 9.43555 7.37244 10.05 7.76805C10.6645 8.15525 11.1316 8.74868 11.4515 9.54833C12.0828 8.72342 12.752 8.12158 13.459 7.7428C14.1745 7.36402 14.9868 7.17463 15.8959 7.17463C16.6871 7.17463 17.3773 7.32193 17.9665 7.61654C18.5558 7.90273 19.0145 8.3236 19.3428 8.87915C19.4943 9.14008 19.6037 9.45153 19.6711 9.81347C19.7468 10.1754 19.7847 10.6931 19.7847 11.3665V19.586H17.0448V13.4371C17.0448 11.8294 16.8723 10.7731 16.5272 10.268C16.1905 9.75455 15.5844 9.49782 14.709 9.49782C13.6316 9.49782 12.8614 9.84293 12.3985 10.5332C11.9439 11.215 11.7167 12.4144 11.7167 14.1316V19.586H8.95155V13.4371C8.95155 11.9557 8.77058 10.9288 8.40863 10.3564C8.0551 9.78401 7.44063 9.49782 6.56523 9.49782C6.02652 9.49782 5.5341 9.61987 5.08798 9.86398C4.64186 10.1081 4.28833 10.4448 4.0274 10.8741C3.85905 11.1518 3.7412 11.4927 3.67387 11.8968C3.60653 12.3008 3.57286 13.0457 3.57286 14.1316V19.586Z" fill="white"/>
<path d="M34.7213 19.586H31.9814V18.033C31.4932 18.7232 30.9209 19.2367 30.2643 19.5734C29.6162 19.9101 28.8712 20.0784 28.0295 20.0784C26.3376 20.0784 25.0035 19.5019 24.027 18.3487C23.059 17.1871 22.575 15.6004 22.575 13.5887C22.575 11.6779 23.0717 10.1375 24.0649 8.96753C25.0582 7.7891 26.3544 7.19988 27.9537 7.19988C28.9301 7.19988 29.7635 7.40611 30.4537 7.81856C31.1523 8.22259 31.6616 8.8076 31.9814 9.57358V7.61654H34.7213V19.586ZM32.0572 13.5634C32.0572 12.3261 31.7668 11.3623 31.186 10.672C30.6136 9.98182 29.8098 9.63671 28.7744 9.63671C27.7391 9.63671 26.9226 9.99445 26.325 10.7099C25.7358 11.417 25.4412 12.4018 25.4412 13.6644C25.4412 14.9354 25.7273 15.9161 26.2997 16.6063C26.8721 17.2965 27.6802 17.6416 28.7239 17.6416C29.7088 17.6416 30.5084 17.267 31.1229 16.5179C31.7458 15.7688 32.0572 14.7839 32.0572 13.5634Z" fill="white"/>
<path d="M47.1074 13.5634C47.1074 12.3261 46.817 11.3623 46.2362 10.672C45.6639 9.98182 44.86 9.63671 43.8247 9.63671C42.7893 9.63671 41.9728 9.99445 41.3752 10.7099C40.786 11.417 40.4914 12.4018 40.4914 13.6644C40.4914 14.9354 40.7776 15.9161 41.35 16.6063C41.9223 17.2965 42.7304 17.6416 43.7742 17.6416C44.759 17.6416 45.5586 17.267 46.1731 16.5179C46.796 15.7688 47.1074 14.7839 47.1074 13.5634ZM49.7715 18.8411C49.7715 21.1811 49.3044 22.8267 48.37 23.7779C47.4357 24.7374 45.8617 25.2172 43.6479 25.2172C41.9981 25.2172 40.6808 24.8679 39.6959 24.1693C38.7111 23.4791 38.2103 22.5574 38.1935 21.4042L41.1353 21.3915C41.1774 21.905 41.4173 22.2964 41.855 22.5658C42.2927 22.8351 42.9072 22.9698 43.6984 22.9698C44.8684 22.9698 45.7102 22.7131 46.2236 22.1996C46.7371 21.6862 46.998 20.8276 47.0064 19.6239L47.0317 18.033C46.5435 18.7232 45.9711 19.2367 45.3145 19.5734C44.6664 19.9101 43.9215 20.0784 43.0797 20.0784C41.3878 20.0784 40.0537 19.5019 39.0773 18.3487C38.1093 17.1871 37.6253 15.6004 37.6253 13.5887C37.6253 11.6779 38.1219 10.1375 39.1152 8.96753C40.1084 7.7891 41.4047 7.19988 43.004 7.19988C43.9804 7.19988 44.8137 7.40611 45.5039 7.81856C46.2026 8.22259 46.7118 8.8076 47.0317 9.57358V7.61654H49.7715V18.8411Z" fill="white"/>
<path d="M65.0112 20.3057L62.2461 14.0811C62.0356 13.6013 61.8631 13.1762 61.7284 12.8058C61.5937 12.4271 61.4717 12.0567 61.3622 11.6948C61.177 12.2419 61.0129 12.7133 60.8698 13.1089C60.7267 13.4961 60.6131 13.7865 60.5289 13.9801L57.6881 20.3057L51.4887 7.61654H54.4053L57.0946 13.3866C57.2041 13.6307 57.3093 13.9674 57.4103 14.3967C57.5197 14.8176 57.6123 15.2848 57.6881 15.7982C57.6965 15.4952 57.747 15.1795 57.8396 14.8513C57.9322 14.523 58.0879 14.119 58.3067 13.6392L61.236 7.17463H61.4632L64.443 13.6392C64.6282 14.0432 64.7628 14.4178 64.847 14.7629C64.9396 15.108 64.9943 15.4531 65.0112 15.7982C65.0869 15.3437 65.1837 14.9144 65.3016 14.5104C65.4194 14.1063 65.5541 13.7402 65.7056 13.4119L68.3444 7.61654H71.2358L65.0112 20.3057Z" fill="white"/>
<path d="M84.2154 19.586H81.4755V18.033C80.9873 18.7232 80.4149 19.2367 79.7584 19.5734C79.1102 19.9101 78.3653 20.0784 77.5236 20.0784C75.8317 20.0784 74.4975 19.5019 73.5211 18.3487C72.5531 17.1871 72.0691 15.6004 72.0691 13.5887C72.0691 11.6779 72.5657 10.1375 73.559 8.96753C74.5522 7.7891 75.8485 7.19988 77.4478 7.19988C78.4242 7.19988 79.2575 7.40611 79.9478 7.81856C80.6464 8.22259 81.1556 8.8076 81.4755 9.57358V7.61654H84.2154V19.586ZM81.5513 13.5634C81.5513 12.3261 81.2609 11.3623 80.6801 10.672C80.1077 9.98182 79.3038 9.63671 78.2685 9.63671C77.2332 9.63671 76.4167 9.99445 75.819 10.7099C75.2298 11.417 74.9352 12.4018 74.9352 13.6644C74.9352 14.9354 75.2214 15.9161 75.7938 16.6063C76.3662 17.2965 77.1742 17.6416 78.218 17.6416C79.2028 17.6416 80.0025 17.267 80.6169 16.5179C81.2398 15.7688 81.5513 14.7839 81.5513 13.5634Z" fill="white"/>
<path d="M87.7633 2.43987C87.7633 1.97691 87.9316 1.57709 88.2683 1.24039C88.6134 0.903699 89.0217 0.735352 89.493 0.735352C89.9812 0.735352 90.3853 0.89949 90.7051 1.22777C91.0334 1.54763 91.1976 1.95166 91.1976 2.43987C91.1976 2.92807 91.0334 3.34052 90.7051 3.67722C90.3769 4.0055 89.9728 4.16963 89.493 4.16963C89.0217 4.16963 88.6134 4.00129 88.2683 3.66459C87.9316 3.31948 87.7633 2.91124 87.7633 2.43987ZM88.1294 19.586V7.61654H90.8693V19.586H88.1294Z" fill="white"/>
</svg>
